<svg xmlns="http://www.w3.org/2000/svg" width="300" height="300" xmlns:xlink="http://www.w3.org/1999/xlink" preserveAspectRatio="none"><defs><g id="a"><path fill="#F2F0EE" d="M18.8 200.95q-1.4.85-2.8 2-.35.25-.75.6.1 2.2.1 4.4 0 .5-.5 1 1.85 28.45 7.35 40 4.85 10.1 11.35 17.65 3.1 3.55 5.3 5.55 2.3 2.2 3.5 2.45-.95-1.2-1.9-2.45-6.65-8.8-11.85-19.25-5.8-11.85-5.85-34.45 1.25-13.95 3.7-21.7-2.1 1.4-7.65 4.2m-1.4-16.6q-1.35.05-2.75.5-.3 3.45-.35 5.15-.05 1.9 0 3.75.4 1.45.05 1.45h-.05q0 .05.05.1.55 3.5.8 6.95 6.7-6.45 11.55-7 .05-.5.15-1v-.3q-6.55 2.85-9.45-9.6m-1.5-9.55l-.1.5q-.7 3.05-1.05 7.85v.15q1.15-.3 2.3-.45-.75-3.55-1.15-8.05z"/><path fill="#2E2822" d="M98.1 257.25l-2.25-.3-.1-.05h-.05l-.4-.05h-.05l-25.05-3.1q2.05 2.2 8.3 3.1 8.2.8 19.6.4z"/><path fill="#666" d="M135.15 225.25q-.95.25-1.5.5l6.95 8.5q-2.7-5-5.45-9m-8.3-6.85q1.75 1.25 3.25 2.8.85.85 1.6 1.75l.35.35h.1q.45-.25 1.25-.4-8.25-11-17-12.85-2.25.25 10.45 8.35m28.7-4.4l4.55 3.85q-3.05-5.45-10.45-10.85-7.8-5.7-19.55-7.05-11.7-1.4-12.2.8-.45 2.15 3.1 1.5 3.55-.7 13.7.35 10.15 1.05 20.85 11.4m-36.8-23.5q-.8.45 0 .95.25.2 1.2.25.95 0 8.05-.95 7.1-1 12.2-1.1 5.05-.2 12.6 1.7 8.1 2.05 12.55 5.2-3.35-3.9-9.25-6.45-7.2-3.1-16.3-3.1-6.95 0-13.6 1.3-5.5 1.05-7.45 2.2z"/><path fill="#6B6967" d="M143.8 222.55q3.35.05 4.65.1-1.2-.75-4.3-1-3.1-.25-10.75 1.25-.8.15-1.25.4.75-.05 4.5-.4 3.7-.4 7.15-.35z"/><path fill="#E3C9B8" d="M26.8 196.5q-.15.05-.35.25-2.45 7.75-3.7 21.7.05 22.6 5.85 34.45 5.2 10.45 11.85 19.25.95 1.25 1.9 2.45.5.1.95.25l68.3 8.55h.05l4 .1h.45q.85 0 1.65.05h.95l10.65.05 4-.05h.3l7.05-.1-27.5-3.95q-.5 0-1.05-.1-11.55-1.85-19.8-7.25-8.8-5.65-13.85-15.3-6.25-.9-8.3-3.1l25.05 3.1h.05l.4.05h.05l.1.05 2.25.3q4.75-.75 7.8-1.8 4.7-1.75 4.2-1.75-34.55 1.2-52.65-17.35 18.2 4.45 28.8 1.7 8.7-2.35 8.45-3.85-16.3.65-28.1-1.35-11.8-2.05-16.75-6.7-5-4.7-6.05-2.45-.9 13 4.25 17.65 5.1 4.6 7.15 5.25-3.35.75-8.35-3.65t-6.25-11.8q-1.2-7.45-2.95-11.1-1.75-3.75-8.8-13.05-2-4.25-2.05-10.5m-.1-1.25h.1q0-.5.05-1-.1.5-.15 1z"/><path fill="#DCC2B1" d="M39.9 185.1q-3.35-1.15-5-5-.3-.75-.3-.8-.4-.25-.8-.1-.55.2-1.4 1.15-.85.95-1.55 4.1-3.1 20.6 6.35 28 9.45 6.7 18.25.5 12.45 13.05 24.7 16.2 12.15 3.1 20.45 1.4 7.9-1.55 31.55-7.25-28.35 5.65-44.4 1.25Q70.65 220 68 201.6q4.4-5.55 8.2-11.7.2-.4.2-.9-2.75 3.2-5.15.15-2.2-2.8-6.7-.6-9.4 4.65-1.85 4.65 3.7 0 6.8 1.3.6.3.05.5-11.15 4.4-15.25 15.05 0-.55-.2-.95-4.35-9.25-12.45-14.85-4-4.45 3.35-3.95 4.4.35-2.7-3.8l-2.4-1.4z"/><path fill="#FCFCFB" d="M15.9 174.8q.4 4.5 1.15 8.05 2.95-.45 6.1.05 3.6.5 5.25 1.35.8-2.95 1.5-4.1.7-1.25 1.45-2.25l.5-.7-.05-.05q-.6-.15-4.35-2.45-3.75-2.45-6.6-3.6-1.65-.7-3.95-.9-.55 2.2-1 4.6m3.75 9.65q-1.05-.2-2.25-.1 2.9 12.45 9.45 9.6.35-2.4.45-4.05.05-1.1.5-2.8-.1-.1-.25-.15-1.7-1.45-7.9-2.5m9.4-48.05q-2.05 2-2.7 3.35-2.1 4.05-3.95 10-2.1 6-4.95 18 2.3.2 4.5 1 4 1.4 7.35 4 2.6 1.9 3.4 3.3l.9-1.25q6.8-10.15 21.3-13.9 3.95-1 8.55-3.45-17.85.25-20.5-15.1-2.75-15.4-13.9-5.95m172.55 22.1q-14.65 1.2-26.9 13.1-6.9 6.7-18.4 7.2-36.4 1.4-51.55-20.6-11.55-16.75-32.45-6.85-1 .45-1.95 1v-.1q0 .1-.05.1v.05q0 .05-.05.05l-.05.05-4.6 5.75q-2.25 2.95-6.05 4.45 9.2 3.4 16.1 9.3 8.75 7.45.75 17 0 .5-.2.9-3.8 6.15-8.2 11.7 2.65 18.4 19.75 22.95 16.05 4.4 44.4-1.25h-.1l-.35-.35q-.75-.9-1.6-1.75-1.5-1.55-3.25-2.8-12.7-8.1-10.45-8.35 8.75 1.85 17 12.85 7.65-1.5 10.75-1.25 3.1.25 4.3 1-.25 3.45-11.05 2.1-1.3.25-2.25.5 2.75 4 5.45 9l-6.95-8.5q-.25.1-.4.25-17.4 5.6-38.55 8.2.25 1.5-8.45 3.85-10.6 2.75-28.8-1.7 18.1 18.55 52.65 17.35.5 0-4.2 1.75-3.05 1.05-7.8 1.8-11.4.4-19.6-.4 5.05 9.65 13.85 15.3 8.25 5.4 19.8 7.25.55.1 1.05.1l27.5 3.95 43.7-.3q22.15-.25 38.2-2.55h.05l12.55-1.1h.05q.85-2.1 2.15-6.05.4-1.3.8-2.75 3.1-10.4 3.4-34.35-.55 0-.9.2-13.05 7.95-27.5 9.25 4.85-3.9 8.6-9l-.4.65q16.8-17.9 17.45-33.8.6-15.9-3.6-18.85 1.6 1.05 2.9 2.35 2.85 2.4 4.05 5.15l.75 1.65q-1.8-28.75-29.75-34.5-3.8-.85-11.6-.95m-82.85 32.95q-.8-.5 0-.95 1.95-1.15 7.45-2.2 6.65-1.3 13.6-1.3 9.1 0 16.3 3.1 5.9 2.55 9.25 6.45-4.45-3.15-12.55-5.2-7.55-1.9-12.6-1.7-5.1.1-12.2 1.1-7.1.95-8.05.95-.95-.05-1.2-.25m41.35 26.4l-4.55-3.85q-10.7-10.35-20.85-11.4-10.15-1.05-13.7-.35-3.55.65-3.1-1.5.5-2.2 12.2-.8 11.75 1.35 19.55 7.05 7.4 5.4 10.45 10.85z"/><path fill="#151413" d="M14.6 184.9v-.05q-2.85.75-6.2 2.8v.05q.2 12.3 2 25.85 2.45 17.95 4.65 29.4t8.7 19.55q4.05 5.05 10.2 11.1 3.5 3.4 7.75 7.2 75.45 7.15 82.95 7.55 94.8-3.65 110.55-8.85l-12.55 1.1h-.05q-16.05 2.3-38.2 2.55l-43.7.3-7.05.1h-.3l-4 .05-10.65-.05h-.95q-.8-.05-1.65-.05h-.45l-4-.1h-.05l-68.3-8.55q-.5-.15-1-.25-1.2-.25-3.5-2.45-2.2-2-5.3-5.55-6.5-7.55-11.35-17.65-5.5-11.55-7.35-40-.1-2.7-.15-4.8v-.05l-.2.1-.1.05-.25.2H14q-.1-.3-.55-.6.55-.6 1.15-1.05-.25-5.3-.3-7.5-.05-.05-.05-.1h.05q-.05-.8-.05-1.15-.05-.2 0-.3-.05-1.85 0-3.75.05-1.7.35-5.1m2.3-14.7q-1.75-.15-3.9-.05-2.2.1-4.1.55-.2 3.4-.3 7.3-.05.9-.05 1.85-.15 3.1-.15 6.3.6-.3 1.2-.7 2.5-1.45 5.15-2.15v-.15q.35-4.8 1.05-7.85l.1-.5q.45-2.4 1-4.6M262.25 60.5q2.1-31.95-7.75-40-9.95-8.1-20 .8-10.05 8.85-23.5 19.5-13.45 10.55-20.55 19.45-17.35-1.65-28.2-1.9-10.85-.2-19.55 1.3-11.7-8.6-18.2-10.4-6.55-1.85-6.35-2-11.8-18.35-18.75-27.4-7-9.1-9.5-8.1-13.4 5.3-17.1 27.3-3.7 22 2.05 37.5-5.3 3-27.65 15.85-22.4 12.85-29 33.45-6.55 20.6-7.9 29.35-.55 3.65-.95 8.45-.25 2.55-.4 5.55 1.25-.55 2.6-.95 3-.75 5.9-.5 2.85-12 4.95-18 1.85-5.95 3.95-10-5.6 7.65-7.05 11.95-1.4 4.25-2.65 6-1.3 1.7 0-7.9 1.2-9.55 3.95-15.85 2.7-6.25 9.4-11.35l1.1-1q-5.25 3.55-9.9 6.45 10.5-26.5 39.3-39.7 28.8-13.25 36.5-23 2.55-3.15 5.7-5.75 0-.55-.25-.8-.3-.3-.8-.3l-2.2-.6q-4.8-7.1-5.55-19.75-.7-12.65-3.05-13.3-2.3-.65-3.5 2-1.15 2.65-2.55 8.55 3.15-7.95 4-8.45 1.15-.55 2.15 7.35.95 7.95 1.4 12.9.35 4.9.4 6.45.05 1.45.5 6.95.4 5.45-5.75 9.95-6.15 4.5-6.25 4.25-4.35-12.05-3.8-27.85 1.9-19.15 11.9-30.25.2-.25.7-.25 13.7 15.75 23.6 35.55.1.2.6.2 14.75 4.2 25.5 12.35.3.3.85.3 26.35-2.15 49.45 2 .5.1 1.05.1Q215 44.3 230.05 31.4q15-13 21.3-4.05 6.3 8.85 5.6 39.2-.7 30.35-2.75 55.1 0 .9.15 1.8v.2q3.1-9.45 5 1.35 7.05 40.2 21.9 72.1 4.2 9.05 13.25 17.9-14.7-7.45-10.1 11.2 4.45 17.9.45 43.45 8.4-32.05 3.8-47.65-1.35-4.65 11.35-3.85-25.55-31.75-29.55-76.35-1.4-16.05-5.35-30.75-5-18.6-2.85-50.55z"/><path fill="#100E0D" d="M29.3 172.75q-3.35-2.6-7.35-4-2.2-.8-4.5-1-2.9-.25-5.9.5-1.35.4-2.6.95-2.7 1.15-4.9 3.3 2.1-1.25 4.85-1.8 1.9-.45 4.1-.55 2.15-.1 3.9.05 2.3.2 3.95.9 2.85 1.15 6.6 3.6 3.75 2.3 4.35 2.45l.05.05-.5.7q-.75 1-1.45 2.25-.7 1.15-1.5 4.1-1.65-.85-5.25-1.35-3.15-.5-6.1-.05-1.15.15-2.3.45-2.65.7-5.15 2.15-.6.4-1.2.7-5.3 3.3-8.5 7.35 3.65-2.45 3.9-2.6 2.35-1.9 4.6-3.2v-.05q3.35-2.05 6.2-2.8v.05q0-.05.05-.05 1.4-.45 2.75-.5 1.2-.1 2.25.1 6.2 1.05 7.9 2.5.15.05.25.15-.45 1.7-.5 2.8-.1 1.65-.45 4.05v.3q-.05.5-.05 1h-.1q-4.85.55-11.55 7-.25.2-.5.55-.6.45-1.1 1.05.4.3.5.6h.05l.25-.2.1-.05.2-.1v.05q0-.05.05-.05.25-.3.55-.55.4-.35.75-.6 1.4-1.15 2.8-2 5.55-2.8 7.65-4.2.2-.2.35-.25.05 6.25 2.05 10.5 7.05 9.3 8.8 13.05 1.75 3.65 2.95 11.1 1.25 7.4 6.25 11.8t8.35 3.65q-2.05-.65-7.15-5.25-5.15-4.65-4.25-17.65 1.05-2.25 6.05 2.45 4.95 4.65 16.75 6.7 11.8 2 28.1 1.35 21.15-2.6 38.55-8.2.15-.15.4-.25.55-.25 1.5-.5t2.25-.5q10.8 1.35 11.05-2.1-1.3-.05-4.65-.1-3.45-.05-7.15.35-3.75.35-4.5.4-23.65 5.7-31.55 7.25-8.3 1.7-20.45-1.4-12.25-3.15-24.7-16.2-8.8 6.2-18.25-.5-9.45-7.4-6.35-28 .7-3.15 1.55-4.1.85-.95 1.4-1.15.4-.15.8.1 0 .05.3.8 1.65 3.85 5 5l2.4 1.4q7.1 4.15 2.7 3.8-7.35-.5-3.35 3.95 8.1 5.6 12.45 14.85.2.4.2.95Q58.4 199.4 69.55 195q.55-.2-.05-.5-3.1-1.3-6.8-1.3-7.55 0 1.85-4.65 4.5-2.2 6.7.6 2.4 3.05 5.15-.15 8-9.55-.75-17-6.9-5.9-16.1-9.3 3.8-1.5 6.05-4.45l4.6-5.75.05-.05q-.4.25-2.7 2-2.7 1.95-3.25 2.2-.6.25-.85.8-4.6 2.45-8.55 3.45-14.5 3.75-21.3 13.9l-.9 1.25q-.8-1.4-3.4-3.3m31.2-1.1q-5 2.75-5.8-3.05 10.75.2 5.8 3.05m-10.1 4.8q0 .25-1.05 1.15-8.65 7.05-9.8-4.4 9.9-10.1 10.85 3.25z"/><path fill="#EFEFEF" d="M49.35 177.6q1.05-.9 1.05-1.15-.95-13.35-10.85-3.25 1.15 11.45 9.8 4.4z"/><path fill="#D9D9D9" d="M54.7 168.6q.8 5.8 5.8 3.05 4.95-2.85-5.8-3.05z"/><path fill="#181512" d="M242.2 192.3q-1.2-2.75-4.05-5.15-1.3-1.3-2.9-2.35 4.2 2.95 3.6 18.85-.65 15.9-17.45 33.8 10.5-8.15 16.15-18.25 5.55-10.15 5.65-16.45 2.55 5.1-.2 15.55 2.2-2.05 5.15-12.7.8-2.95 1.35-6.2 1.3-6.45-.5-10.75l-.15-.7q-5.45-26.5-34.65-30-4.7-.5-12.6.55 7.8.1 11.6.95 27.95 5.75 29.75 34.5l-.75-1.65z"/><path fill="#E18E4C" d="M256.95 66.55q.7-30.35-5.6-39.2-6.3-8.95-21.3 4.05Q215 44.3 191.1 66.95q-.55 0-1.05-.1-23.1-4.15-49.45-2-.55 0-.85-.3Q129 56.4 114.25 52.2q-.5 0-.6-.2-9.9-19.8-23.6-35.55-.5 0-.7.25-10 11.1-11.9 30.25-.55 15.8 3.8 27.85.1.25 6.25-4.25t5.75-9.95q-.45-5.5-.5-6.95-.05-1.55-.4-6.45-.45-4.95-1.4-12.9-1-7.9-2.15-7.35-.85.5-4 8.45 1.4-5.9 2.55-8.55 1.2-2.65 3.5-2 2.35.65 3.05 13.3.75 12.65 5.55 19.75l2.2.6q.5 0 .8.3.25.25.25.8-3.15 2.6-5.7 5.75-7.7 9.75-36.5 23-28.8 13.2-39.3 39.7 4.65-2.9 9.9-6.45l-1.1 1q-6.7 5.1-9.4 11.35-2.75 6.3-3.95 15.85-1.3 9.6 0 7.9 1.25-1.75 2.65-6 1.45-4.3 7.05-11.95.65-1.35 2.7-3.35 11.15-9.45 13.9 5.95 2.65 15.35 20.5 15.1.25-.55.85-.8.55-.25 3.25-2.2 2.3-1.75 2.7-2 .05 0 .05-.05v-.05q.05 0 .05-.1v.1q.95-.55 1.95-1 20.9-9.9 32.45 6.85 15.15 22 51.55 20.6 11.5-.5 18.4-7.2 12.25-11.9 26.9-13.1 7.9-1.05 12.6-.55 29.2 3.5 34.65 30l.15.7q1.8 4.3.5 10.75-.55 3.25-1.35 6.2-2.95 10.65-5.15 12.7 2.75-10.45.2-15.55-.1 6.3-5.65 16.45-5.65 10.1-16.15 18.25l.4-.65q-3.75 5.1-8.6 9 14.45-1.3 27.5-9.25.35-.2.9-.2-.3 23.95-3.4 34.35-.4 1.45-.8 2.75-1.3 3.95-2.15 6.05l2.15-.3q24.65-3.25 46.35-9.05.45-.15 1-.15l-.3 1.85.4-2.2q4-25.55-.45-43.45-4.6-18.65 10.1-11.2-9.05-8.85-13.25-17.9-14.85-31.9-21.9-72.1-1.9-10.8-5-1.35v-.2q-.15-.9-.15-1.8 2.05-24.75 2.75-55.1m-9.1 23.8q.35-.35-.6 6.45t-3.65 15.35q-2.75 8.5-.95 22.15-2.9-6.6-8.5-10.5Q212 108.6 195.3 88q16.75-31.1 46.3-48.75 2.05-1.2 3.5.85 4.1 5.4 4.55 12.6.35 7.15-1.95 13.35l.2-6.45q0-.55-.05-1.1-.4-3.75-1.3-7-1.7-5.75-4.95-9.8-.55 0-.9.25-23.85 17.1-35.95 46.05 14.1 18.5 31.8 33.4.3.25.85.25 5.15-9.45 8.05-21.1.15-.5.25-1.05l2.15-9.15m-80.4 35.25q4.15 2.35 7.85 5.55 8.15 22.7-6.6 36.55-.25.25-.75.25-15.6 6.45-31.4-1.35-4.85-2.4-6.3-3.9-1.25-.9-3.05-3.5-1.75-2.55-1.55-12.75 0 .45.3-2.05.1-2 1.75-6.75 1.6-4.75 7.65-10.7-3-.1-6.4 1.8 2.1-3.55 6-5.35 16.05-7.25 32.5 2.2m-36.8-31.55q18.7-6.85 29.15 3.15 3.85 9.8-7.5 11.15-18.6 2.2-32.2 10.4-6.05 3.65-5.85-5.5 4.75-12.95 16.4-19.2m-55.3-1.85q2.25.2 5.35-3.15 6.75-7.4 14.95-1.5 6.15 4.5 6 15.15-2.2 14.8-10.7 8.7-2.65-11.25-15.4-18.55-.2-.15-.2-.65m-9.5 8.4q14.1-3.3 14.75 3.7-3.05-2.15-14.75-3.7m6.35 10.55q.5 0 .85.25Q86 122.9 78.2 142.15q-12.4 14.6-26 1.6-.55 0-.85-5.1-.35-5.1.8-12.1 2.85-6.1 5.9-7.45 7.25-5.7 2.05-4.95-2.3.45-2.65 1.7.25-5.5 14.75-4.7m38.05-6.85q-3.7 4.35-7.3 14.25-1.5-4.45-.25-7.4 4.1-9 13.7-14-2.4 2.75-6.15 7.15m41.9 6.85q15.5-5.1 20.3 5.15-6.75-4.95-20.3-5.15z"/><path fill="#3C2613" d="M172.45 116.3q-4.8-10.25-20.3-5.15 13.55.2 20.3 5.15z"/><path fill="#2B1B0D" d="M102.95 118.55q3.6-9.9 7.3-14.25 3.75-4.4 6.15-7.15-9.6 5-13.7 14-1.25 2.95.25 7.4z"/><path fill="#EBEBEB" d="M63.4 127.85q4.2 13.6 8.15.65t-5.95-6.05q-1.9 1.8-2.2 5.4z"/><path fill="#392920" d="M58.95 120.85q.05-.1.15-.15l.1-.15q-.15-1-.45-1.25l-.7-.2q-3.05 1.35-5.9 7.45-1.15 7-.8 12.1.3 5.1.85 5.1v-1.05h1.05q-1-8.05.65-15.65 1.9-3.5 4.9-6.15l.15-.05z"/><path fill="#333335" d="M65.1 121.4q-.3-.25-.9-.6-1.75 1.9-2.55 4 .55.55.85 1.15.2.45.9 1.9.3-3.6 2.2-5.4-.25-.8-.5-1.05z"/><path fill="#EAEAEA" d="M64.2 120.8q1.9-2.1 5.35-3.35-4.45-1.95-10.35 3.15l-.1.1q-.1.05-.15.15l-.15.05q-3 2.65-4.9 6.15-1.65 7.6-.65 15.65 10.05 6.9 7.3-10.85-.25-1.55.4-4.9.2-1.1.7-2.15.8-2.1 2.55-4z"/><path fill="#15110F" d="M73.05 111.4q-.35-.25-.85-.25-14.5-.8-14.75 4.7.35-1.25 2.65-1.7 5.2-.75-2.05 4.95l.7.2q.3.25.45 1.25l-.1.15.1-.1q5.9-5.1 10.35-3.15-3.45 1.25-5.35 3.35.6.35.9.6.25.25.5 1.05 9.9-6.9 5.95 6.05t-8.15-.65q-.7-1.45-.9-1.9-.3-.6-.85-1.15-.5 1.05-.7 2.15-.65 3.35-.4 4.9 2.75 17.75-7.3 10.85H52.2v1.05q13.6 13 26-1.6 7.8-19.25-5.15-30.75m2.15 18q-.4 3.45-1.4.25 2.7-11.75 1.4-.25z"/><path fill="#CBCACA" d="M73.8 129.65q1 3.2 1.4-.25 1.3-11.5-1.4.25z"/><path fill="#321F10" d="M80.6 104.3q-.65-7-14.75-3.7 11.7 1.55 14.75 3.7z"/><path fill="#FDC470" d="M80.7 89.05q-3.1 3.35-5.35 3.15 0 .5.2.65 12.75 7.3 15.4 18.55 8.5 6.1 10.7-8.7.15-10.65-6-15.15-8.2-5.9-14.95 1.5z"/><path fill="#FCC470" d="M159.8 97.2q-10.45-10-29.15-3.15-11.65 6.25-16.4 19.2-.2 9.15 5.85 5.5 13.6-8.2 32.2-10.4 11.35-1.35 7.5-11.15z"/><path fill="#999" d="M151.7 128.5q2.15-1.65-6.9-.55l-3.55 1q6.15.2 7.65.55.1.05.1.55.5 0 2.7-1.55z"/><path fill="#44342A" d="M125.95 144.4q-.3 2.5-.3 2.05-.2 10.2 1.55 12.75 1.8 2.6 3.05 3.5-2.3-2.65-3.3-5.45 1.55 2.3 3.2 2.95-1.15-1.2-1.35-1.6-1.65-3.55-1.55-9.05-1.3 5.05-1.3-5.15z"/><path fill="#F1F1F1" d="M127.95 145.85q-.15.8-.3 1.35t-.35 2.3h-.05v.05q-.1 5.5 1.55 9.05.2.4 1.35 1.6 6.4 6.45 11.8 3.25l-.55-1.75q-6.5-21.25 7.6-31.65 0-.5-.1-.55-1.5-.35-7.65-.55-9.7 4.6-13.3 16.9z"/><path fill="#0B0807" d="M175.3 131.15q-3.7-3.2-7.85-5.55-16.45-9.45-32.5-2.2-3.9 1.8-6 5.35 3.4-1.9 6.4-1.8-6.05 5.95-7.65 10.7-1.65 4.75-1.75 6.75 0 10.2 1.3 5.15v-.05h.05q.2-1.75.35-2.3.15-.55.3-1.35 3.6-12.3 13.3-16.9l3.55-1q9.05-1.1 6.9.55-2.2 1.55-2.7 1.55-14.1 10.4-7.6 31.65l.55 1.75q-5.4 3.2-11.8-3.25-1.65-.65-3.2-2.95 1 2.8 3.3 5.45 1.45 1.5 6.3 3.9 15.8 7.8 31.4 1.35.5 0 .75-.25 14.75-13.85 6.6-36.55m-20.9 15.35q-9.2 2.55-8.55-9.05 11.75-12.05 12.8 4.3.3 3.55-4.25 4.75m10.75-6.7q-2.35 1.6-4.65-4.95 6.95 3.4 4.65 4.95z"/><path fill="#E6E6E6" d="M160.5 134.85q2.3 6.55 4.65 4.95 2.3-1.55-4.65-4.95z"/><path fill="#F0F0F0" d="M145.85 137.45q-.65 11.6 8.55 9.05 4.55-1.2 4.25-4.75-1.05-16.35-12.8-4.3z"/><path fill="#170E08" d="M247.25 96.8q.95-6.8.6-6.45l-2.15 9.15q-.1.55-.25 1.05-2.9 11.65-8.05 21.1-.55 0-.85-.25-17.7-14.9-31.8-33.4 12.1-28.95 35.95-46.05.35-.25.9-.25 3.25 4.05 4.95 9.8.9 3.25 1.3 7 .05.55.05 1.1l-.2 6.45q2.3-6.2 1.95-13.35-.45-7.2-4.55-12.6-1.45-2.05-3.5-.85Q212.05 56.9 195.3 88q16.7 20.6 38.85 35.8 5.6 3.9 8.5 10.5-1.8-13.65.95-22.15 2.7-8.55 3.65-15.35z"/></g></defs><use xlink:href="#a"/></svg>